<svg width="18" height="20" viewBox="0 0 18 20" fill="none" xmlns="http://www.w3.org/2000/svg">
<path d="M16 2L15 2L15 2.32291e-10L13 2.01319e-10L13 2L5 2L5 0L3 0L3 2L2 2C0.89 2 0.00999999 2.9 0.00999999 4L-2.78749e-10 18C-2.86963e-10 18.5304 0.210714 19.0391 0.585786 19.4142C0.960859 19.7893 1.46957 20 2 20L16 20C17.1 20 18 19.1 18 18L18 4C18 2.9 17.1 2 16 2ZM16 18L2 18L2 8L16 8L16 18ZM6 12L4 12L4 10L6 10L6 12ZM10 12L8 12L8 10L10 10L10 12ZM14 12L12 12L12 10L14 10L14 12ZM6 16L4 16L4 14L6 14L6 16ZM10 16L8 16L8 14L10 14L10 16ZM14 16L12 16L12 14L14 14L14 16Z" fill="#333333"/>
</svg>
