<svg width="35" height="35" viewBox="0 0 35 35" fill="none" xmlns="http://www.w3.org/2000/svg">
<path d="M34.3389 14C34.5255 14 34.6869 14.1303 34.718 14.313C34.9008 15.3358 35 16.4364 35 17.5C35.0059 21.8067 33.4177 25.9632 30.5414 29.1686C30.4746 29.2426 30.3816 29.2877 30.2821 29.2942C30.1826 29.3007 30.0845 29.2682 30.0086 29.2036L25.2544 25.1786C25.2135 25.1434 25.1801 25.1002 25.1562 25.0517C25.1324 25.0032 25.1186 24.9504 25.1157 24.8965C25.1128 24.8425 25.1208 24.7885 25.1393 24.7378C25.1578 24.687 25.1864 24.6405 25.2233 24.6011C26.1807 23.559 26.9175 22.3341 27.3894 21H17.8889C17.7857 21 17.6868 20.959 17.6139 20.8861C17.541 20.8132 17.5 20.7142 17.5 20.6111V14.3889C17.5 14.175 17.675 14 17.8889 14H34.3389ZM22.3086 26.8333C22.3783 26.7969 22.4572 26.7819 22.5354 26.7902C22.6136 26.7985 22.6876 26.8297 22.748 26.88L27.7414 31.1053C27.7859 31.1424 27.8214 31.1891 27.8451 31.242C27.8689 31.2949 27.8803 31.3525 27.8784 31.4104C27.8765 31.4684 27.8614 31.5251 27.8343 31.5763C27.8072 31.6276 27.7688 31.6719 27.7219 31.7061C24.7465 33.8532 21.1692 35.0059 17.5 35C14.5833 35.0015 11.7126 34.2734 9.14926 32.882C6.58587 31.4906 4.41124 29.4801 2.82334 27.0336C2.77133 26.9527 2.75165 26.8552 2.76822 26.7604C2.78479 26.6657 2.8364 26.5806 2.91279 26.5222L7.8614 22.7072C7.9069 22.6732 7.95908 22.6492 8.01451 22.6368C8.06995 22.6244 8.12738 22.6239 8.18303 22.6353C8.23868 22.6467 8.29129 22.6697 8.3374 22.7029C8.38351 22.7361 8.42207 22.7786 8.45056 22.8278C9.81101 25.14 12.0052 26.8435 14.5824 27.5884C17.1597 28.3333 19.9244 28.0631 22.3086 26.8333ZM7.15556 19.3005C7.168 19.3718 7.16082 19.4451 7.13478 19.5126C7.10875 19.58 7.06485 19.6392 7.00778 19.6836L1.68973 23.7805C1.6428 23.8174 1.58788 23.8427 1.52938 23.8544C1.47089 23.8661 1.41046 23.864 1.35295 23.8481C1.29545 23.8322 1.24248 23.803 1.19831 23.7629C1.15413 23.7228 1.11999 23.6729 1.09862 23.6172C0.369554 21.6602 -0.00254271 19.5884 1.30769e-05 17.5C1.30769e-05 15.26 0.421957 13.1172 1.19001 11.1475C1.21158 11.0932 1.24534 11.0446 1.28868 11.0054C1.33203 10.9663 1.38379 10.9376 1.43999 10.9216C1.49618 10.9056 1.55529 10.9028 1.61275 10.9133C1.67022 10.9238 1.7245 10.9474 1.7714 10.9822L7.08362 14.8789C7.21001 14.9703 7.26834 15.1317 7.23528 15.2833C6.95064 16.6048 6.92485 17.9686 7.15556 19.3005ZM8.06362 11.9797C8.25028 12.1158 8.51278 12.0614 8.63723 11.8669C9.58494 10.3748 10.8943 9.14629 12.4437 8.29544C13.9931 7.44459 15.7323 6.99899 17.5 7C19.9442 6.99918 22.3113 7.85587 24.1889 9.42083C24.2647 9.48504 24.3617 9.51864 24.461 9.51504C24.5603 9.51145 24.6546 9.47091 24.7255 9.40138L29.1317 4.99333C29.1686 4.95662 29.1976 4.91277 29.217 4.86446C29.2364 4.81615 29.2458 4.76439 29.2445 4.71235C29.2432 4.6603 29.2313 4.60907 29.2096 4.56176C29.1879 4.51446 29.1567 4.47208 29.118 4.43722C25.9238 1.57811 21.7869 -0.001867 17.5 2.66238e-06C14.6216 -0.00158563 11.7873 0.707493 9.2487 2.0643C6.71012 3.4211 4.54577 5.38366 2.94779 7.77777C2.89407 7.86002 2.874 7.95976 2.89173 8.05639C2.90947 8.15301 2.96364 8.23913 3.04307 8.29694L8.06362 11.9797Z" fill="#2A867D"/>
</svg>
