<svg width="18" height="21" viewBox="0 0 18 21" fill="none" xmlns="http://www.w3.org/2000/svg">
<path d="M15 7L17 7C17.2652 7 17.5196 7.10536 17.7071 7.29289C17.8946 7.48043 18 7.73478 18 8L18 20C18 20.2652 17.8946 20.5196 17.7071 20.7071C17.5196 20.8946 17.2652 21 17 21L1 21C0.734784 21 0.48043 20.8946 0.292893 20.7071C0.105357 20.5196 -3.13828e-10 20.2652 -3.09721e-10 20L-1.23888e-10 8C-1.19781e-10 7.73478 0.105357 7.48043 0.292893 7.29289C0.48043 7.10536 0.734784 7 1 7L3 7L3 6C3 4.4087 3.63214 2.88258 4.75736 1.75736C5.88258 0.632141 7.4087 1.14733e-10 9 1.39375e-10C10.5913 1.64018e-10 12.1174 0.632141 13.2426 1.75736C14.3679 2.88258 15 4.4087 15 6L15 7ZM13 7L13 6C13 4.93913 12.5786 3.92172 11.8284 3.17157C11.0783 2.42143 10.0609 2 9 2C7.93913 2 6.92172 2.42143 6.17157 3.17157C5.42143 3.92172 5 4.93913 5 6L5 7L13 7ZM8 13L8 15L10 15L10 13L8 13ZM4 13L4 15L6 15L6 13L4 13ZM12 13L12 15L14 15L14 13L12 13Z" fill="#222222"/>
</svg>
