<svg width="61" height="56" viewBox="0 0 61 56" fill="none" xmlns="http://www.w3.org/2000/svg">
<path d="M26.1961 0.913259C25.6322 0.911564 25.0666 0.912048 24.4995 0.914107C21.7695 0.924884 18.9959 0.985794 16.1987 1.07395L17.008 4.08834C19.921 3.80861 23.1146 3.60033 26.3079 3.49619C28.038 3.43976 29.7575 3.40997 31.4253 3.41748C36.4291 3.43964 40.9691 3.7965 43.9394 4.77397L45.2095 5.19223L44.6425 6.24393C40.499 13.9316 39.5407 21.3482 40.19 28.6252C40.5106 19.989 44.7373 12.3078 50.286 2.46072C42.7356 1.39509 34.6546 0.937114 26.1961 0.913138V0.913259ZM30.1932 5.61049C28.947 5.61133 27.6767 5.63277 26.4064 5.67418C20.4649 5.86793 14.5441 6.46008 10.6852 7.13893C14.9958 13.9297 18.4828 20.7362 20.7345 27.3715C21.0146 27.3636 21.295 27.3654 21.5749 27.377C22.1478 27.4008 22.7144 27.4668 23.268 27.5695C20.9761 21.3457 18.3655 15.6054 15.1202 9.87395L14.387 8.57898L16.0531 8.32856C20.2387 7.69911 24.5588 7.45547 28.6704 7.45438C28.9445 7.45438 29.2179 7.45523 29.49 7.45729C32.1026 7.47666 34.6205 7.59146 36.9534 7.76426L38.5294 7.88111L38.0698 9.16677C35.4036 16.6217 34.8813 24.6278 36.3888 32.2451C36.4139 32.2648 36.4392 32.2844 36.4638 32.3044C37.0074 32.1426 37.516 31.9777 37.9901 31.8014C36.8132 23.6404 37.3346 15.2208 41.7297 6.46843C39.2771 5.93768 35.5383 5.66025 31.43 5.61666C31.0178 5.61233 30.6055 5.61019 30.1932 5.61049ZM50.8592 6.50476C46.4455 14.4432 43.3106 20.8047 42.7968 27.6723C45.6538 19.583 51.176 12.3316 57.4687 7.67271C55.2844 7.20997 53.0795 6.82035 50.8592 6.50476ZM8.80417 8.74851C6.12941 9.2169 3.51652 9.81147 0.98918 10.633C2.21906 11.5388 4.44242 13.2238 7.14 15.4633C8.38157 14.3779 9.64781 13.3056 10.9685 12.3306C10.269 11.1271 9.54747 9.93292 8.80417 8.74851ZM29.0535 9.65453C27.1116 9.64654 25.1238 9.69377 23.1289 9.81111C22.9195 11.4679 21.7658 13.0179 20.3878 14.5422C22.5879 18.9584 24.4881 23.4648 26.1987 28.2493C28.8186 28.9057 31.4105 29.6815 33.5101 30.6111C32.7302 25.4697 32.8369 20.2016 33.8494 15.0496C32.0123 13.4379 31.0553 11.6481 30.9786 9.68032C30.3371 9.66581 29.6953 9.65721 29.0535 9.65453ZM55.0053 12.9222C51.4794 16.4703 48.3725 20.9141 46.2553 25.7475C50.1426 21.0513 54.9226 17.3882 60.0108 14.8007C58.3531 14.1539 56.6845 13.5277 55.0053 12.9222ZM12.1264 14.3704C10.0456 15.9674 7.98962 17.8842 5.84853 19.7103C10.4522 22.0342 14.3734 24.7863 17.5722 27.9035C17.7708 27.8398 17.9714 27.7825 18.1731 27.7303C16.6763 23.3593 14.6251 18.8865 12.1264 14.3704ZM45.4023 29.4771C43.0644 31.8733 40.8634 33.1384 37.8328 34.1477C38.1737 35.2642 37.6674 36.5459 36.502 37.5263C35.8165 38.1028 34.955 38.76 33.6955 39.1871C33.8772 39.2785 34.0627 39.3644 34.2515 39.4447C36.0144 40.1918 39.1287 39.9509 42.022 38.8333C44.9064 37.7192 47.4831 35.7948 48.438 33.8453C48.9167 32.7494 48.5749 32.1779 47.737 31.3396C47.1404 30.7433 46.2691 30.142 45.4023 29.4772V29.4771ZM21.1527 29.5481C19.625 29.5362 18.0735 29.9106 16.7913 30.7299C14.9677 31.8952 13.5619 33.9733 13.5493 37.5032V37.5274L13.5479 37.5516C13.1316 44.9845 13.776 48.4137 15.0528 50.2743C16.1797 51.9166 18.0541 52.7028 20.7958 54.1486C20.9264 53.8573 21.0625 53.4989 21.1901 53.0469C21.5147 51.8966 21.7833 50.3168 21.9536 48.5695C22.2942 45.0749 22.2444 40.8788 21.6748 37.8593L21.3739 36.2621L23.2297 36.6248C27.7373 37.5055 30.3158 37.6095 31.8129 37.3852C33.3102 37.1607 33.8176 36.7164 34.6959 35.9776C35.5215 35.2835 35.5061 35.0337 35.3313 34.6431C35.1563 34.2523 34.4545 33.6083 33.2639 32.9922C30.8824 31.76 26.8357 30.6174 23.0533 29.7654C22.4329 29.626 21.7944 29.5529 21.1527 29.5481ZM48.1142 37.9539C46.6866 39.135 44.9298 40.1046 43.0845 40.8174C40.0928 41.9729 36.8021 42.5015 34.072 41.732C33.1082 42.0367 32.5483 42.3868 32.2658 42.6766C31.8783 43.0742 31.8541 43.3668 31.9854 43.7858C32.1166 44.2048 32.5079 44.7022 32.9918 45.0602C33.4756 45.4181 34.0506 45.6041 34.2692 45.6128C40.941 45.8819 43.8285 44.2557 47.4259 42.3696C48.475 41.8196 48.8765 40.7054 48.776 39.5928C48.7256 39.0365 48.535 38.5137 48.315 38.1845C48.2603 38.1004 48.1928 38.0229 48.1142 37.9539ZM24.4196 39.0554C24.8084 42.0909 24.8148 45.6325 24.5111 48.7493C24.3334 50.5744 24.0585 52.2342 23.6858 53.5549C23.5237 54.1296 23.3453 54.6392 23.1297 55.0878L44.0455 54.3049C43.8094 53.5603 43.5687 52.8126 43.3282 52.0645C42.5246 52.2916 41.7032 52.4707 40.8701 52.6002L40.8764 52.6886L39.6907 52.7513C38.9606 52.8257 38.2005 52.8667 37.4119 52.8714L25.4553 53.5023L25.8107 52.0968C26.9438 47.6156 27.0483 43.67 26.3494 39.3536C25.7039 39.2648 25.0604 39.1654 24.4195 39.0554H24.4196ZM28.9781 39.6226C29.541 43.4895 29.4733 47.18 28.6351 51.1507L31.3817 51.0059C30.951 50.466 30.655 49.857 30.512 49.2163C30.3272 48.3832 30.43 47.4559 31.0717 46.6891C31.1001 46.6551 31.1308 46.6225 31.1611 46.5897C30.4132 46.003 29.7884 45.2502 29.5052 44.3466C29.2038 43.3846 29.392 42.2068 30.289 41.2865C30.5854 40.9826 30.9437 40.7082 31.3644 40.4611C30.9923 40.2093 30.6661 39.9423 30.3844 39.6641C29.9475 39.6666 29.4797 39.6528 28.9781 39.6226ZM47.8934 44.6825C44.5491 46.4084 40.7916 48.0581 34.1474 47.7902C33.9306 47.7812 33.7151 47.7563 33.5033 47.7157C33.3275 47.7827 33.2337 47.8678 33.1636 47.9515C33.0263 48.1156 32.9452 48.4117 33.034 48.8129C33.212 49.6153 34.1069 50.4947 34.9403 50.5771C40.8409 51.1599 44.9178 49.5204 47.3932 47.6131C48.5339 46.7342 48.5435 46.172 48.3756 45.5604C48.2915 45.2549 48.1061 44.9587 47.8934 44.6825ZM46.9405 50.6236C46.5444 50.8345 46.1379 51.0308 45.7219 51.2121C45.9572 51.9448 46.193 52.6776 46.4258 53.4104L49.266 52.9779C48.5331 52.4466 47.9597 51.8936 47.4994 51.3436C47.2939 51.0979 47.1126 50.8591 46.9405 50.6236Z" fill="black"/>
</svg>
