<svg width="21" height="18" viewBox="0 0 21 18" fill="none" xmlns="http://www.w3.org/2000/svg">
<path d="M13.95 17.575C13.8167 17.575 13.6917 17.5543 13.575 17.513C13.4583 17.4717 13.35 17.4007 13.25 17.3L10.4 14.45C10.2167 14.2667 10.125 14.0333 10.125 13.75C10.125 13.4667 10.2167 13.2333 10.4 13.05C10.5833 12.8667 10.8167 12.775 11.1 12.775C11.3833 12.775 11.6167 12.8667 11.8 13.05L13.95 15.2L18.9 10.25C19.0833 10.0667 19.3167 9.975 19.6 9.975C19.8833 9.975 20.1167 10.0667 20.3 10.25C20.4833 10.4333 20.575 10.6667 20.575 10.95C20.575 11.2333 20.4833 11.4667 20.3 11.65L14.65 17.3C14.55 17.4 14.4417 17.471 14.325 17.513C14.2083 17.555 14.0833 17.5757 13.95 17.575ZM2 2L10 7L18 2L2 2ZM2 16C1.45 16 0.979002 15.804 0.587002 15.412C0.195002 15.02 -0.000664969 14.5493 1.69758e-06 14L1.69776e-06 2C1.69777e-06 1.45 0.196002 0.979002 0.588002 0.587002C0.980002 0.195002 1.45067 -0.000664969 2 1.69782e-06L18 1.69807e-06C18.55 1.69808e-06 19.021 0.196002 19.413 0.588001C19.805 0.980001 20.0007 1.45067 20 2L20 6.35L19 7.35L18 8.35L18 4L10.525 8.675C10.4417 8.725 10.354 8.76267 10.262 8.788C10.17 8.81334 10.0827 8.82567 10 8.825C9.91667 8.825 9.829 8.81267 9.737 8.788C9.645 8.76334 9.55767 8.72567 9.475 8.675L2 4L2 14L7.15 14L9.15 16L2 16Z" fill="#222222"/>
</svg>
