<svg width="18" height="20" viewBox="0 0 18 20" fill="none" xmlns="http://www.w3.org/2000/svg">
<path fill-rule="evenodd" clip-rule="evenodd" d="M9.02007 1.39685e-10C6.64653 1.02928e-10 4.4837 0.828958 3.20418 1.50624C3.08858 1.56735 2.98085 1.62736 2.88049 1.68514C2.68186 1.79959 2.51266 1.90627 2.37814 2.00017L3.83369 4.26591L4.5189 4.55427C7.19669 5.98272 10.7877 5.98272 13.4661 4.55427L14.2438 4.12757L15.6205 2.00017C15.3353 1.80348 15.0387 1.62589 14.7324 1.46846C13.4598 0.7984 11.3489 1.7575e-10 9.02007 1.39685e-10ZM5.63447 2.56466C5.11905 2.46268 4.60998 2.3276 4.11009 2.16018C5.30868 1.59736 7.09528 1.00008 9.01954 1.00008C10.3527 1.00008 11.6133 1.28677 12.6558 1.65014C11.4341 1.83182 10.1304 2.14018 8.88818 2.51965C7.91081 2.81857 6.76844 2.78634 5.63447 2.56466ZM14.021 5.37823L13.8922 5.44712C10.9459 7.01836 7.03853 7.01836 4.09222 5.44712L3.97031 5.38156C-0.455187 10.5159 -3.83395 20 9.02007 20C21.873 20 18.4118 10.3386 14.021 5.37823ZM8.47358 10.0008C8.19486 10.0008 7.92755 10.1179 7.73046 10.3263C7.53337 10.5347 7.42264 10.8173 7.42264 11.112C7.42264 11.4067 7.53337 11.6894 7.73046 11.8978C7.92755 12.1062 8.19486 12.2232 8.47358 12.2232L8.47358 10.0008ZM9.52452 8.88963L9.52452 8.33403L8.47358 8.33403L8.47358 8.88963C7.91613 8.88963 7.38151 9.12378 6.98733 9.54056C6.59315 9.95734 6.37171 10.5226 6.37171 11.112C6.37171 11.7015 6.59315 12.2667 6.98733 12.6835C7.38151 13.1003 7.91613 13.3344 8.47358 13.3344L8.47358 15.5569C8.25624 15.5569 8.04423 15.4857 7.86674 15.3531C7.68926 15.2204 7.55503 15.0329 7.48255 14.8162C7.43614 14.6773 7.33943 14.5635 7.21368 14.4999C7.08794 14.4364 6.94347 14.4282 6.81205 14.4773C6.68063 14.5264 6.57303 14.6286 6.51292 14.7616C6.4528 14.8946 6.44511 15.0473 6.49151 15.1863C6.63646 15.6196 6.90489 15.9948 7.25986 16.2602C7.61482 16.5256 8.03885 16.668 8.47358 16.6681L8.47358 17.2237L9.52452 17.2237L9.52452 16.6681C10.082 16.6681 10.6166 16.4339 11.0108 16.0171C11.4049 15.6003 11.6264 15.0351 11.6264 14.4456C11.6264 13.8562 11.4049 13.291 11.0108 12.8742C10.6166 12.4574 10.082 12.2232 9.52452 12.2232L9.52452 10.0008C9.98168 10.0008 10.3711 10.3092 10.5161 10.7415C10.5376 10.8122 10.5723 10.8776 10.6182 10.9339C10.664 10.9902 10.7201 11.0362 10.783 11.0692C10.846 11.1021 10.9146 11.1214 10.9847 11.1259C11.0548 11.1304 11.1251 11.1199 11.1914 11.0952C11.2576 11.0704 11.3185 11.0319 11.3704 10.9818C11.4223 10.9317 11.4642 10.8712 11.4936 10.8037C11.523 10.7362 11.5393 10.6632 11.5415 10.589C11.5437 10.5147 11.5319 10.4407 11.5066 10.3714C11.3616 9.93806 11.0932 9.56287 10.7382 9.2975C10.3833 9.03214 9.95925 8.88964 9.52452 8.88963ZM9.52452 13.3344L9.52452 15.5569C9.80325 15.5569 10.0706 15.4398 10.2676 15.2314C10.4647 15.023 10.5755 14.7404 10.5755 14.4456C10.5755 14.1509 10.4647 13.8683 10.2676 13.6599C10.0706 13.4515 9.80325 13.3344 9.52452 13.3344Z" fill="#333333"/>
</svg>
