<svg width="64" height="64" viewBox="0 0 64 64" fill="none" xmlns="http://www.w3.org/2000/svg">
<g clip-path="url(#clip0_8_291)">
<path d="M54 46.9C54 59 44.2 59 32 59C19.8 59 10 59 10 46.9C10 34.8 19.9 15 32 15C44.1 15 54 34.7 54 46.9Z" fill="#DBB471"/>
<path opacity="0.5" d="M54 46.9C54 42.8 52.9 37.8 50.9 33C51.3 36.1 50.5 41.6 41 43.7C27.5 46.6 34.5 50.4 29.2 50.9C24.7 51.3 12.7 49.5 10.3 42.7C10.1 44.2 9.9 45.6 9.9 47C10 59 19.9 59 32 59C44.1 59 54 59 54 46.9Z" fill="#89664C"/>
<path d="M37.9 41.1C37.5 39.1 35.8 38.5 34 38.4V35.6C34.5 35.8 35.1 36.1 35.5 36.4C36.3 36.9 37.1 35.6 36.3 35.1C35.6 34.7 34.8 34.3 34 34V30.7C34 29.7 32.5 29.7 32.5 30.7V33.6C31.7 33.5 30.9 33.5 30.1 33.6C30 32.9 29.8 32.2 29.6 31.5C29.4 30.5 27.9 30.9 28.2 31.9C28.4 32.6 28.5 33.3 28.7 34C28.6 34 28.6 34 28.5 34.1C26.5 34.9 25.2 36.9 26.7 38.8C27.4 39.7 28.3 40 29.3 40.2C29.4 41.5 29.4 42.8 29.4 44.1C28.7 43.7 28.1 43.1 27.6 42.6C26.9 41.9 25.9 43 26.5 43.7C27.4 44.7 28.4 45.4 29.4 45.9C29.4 47 29.5 48.1 29.6 49.2C29.7 50.2 31.2 50.2 31.1 49.2C31 48.2 30.9 47.3 30.9 46.3C31.5 46.4 32.1 46.4 32.7 46.4C32.8 47.4 32.9 48.4 33 49.5C33.1 50.5 34.6 50.5 34.5 49.5C34.4 48.4 34.3 47.3 34.2 46.1C36.4 45.3 38.4 43.6 37.9 41.1ZM32.5 35.1V38.4C32 38.4 31.6 38.5 31.2 38.5H30.7L30.4 34.9C31.1 34.9 31.8 35 32.5 35.1ZM28.9 38.3C28.5 38.2 28.1 37.9 27.7 37.6C26.8 36.7 28.1 35.9 28.9 35.5C29 36.5 29.1 37.4 29.2 38.4C29.1 38.4 29 38.4 28.9 38.3ZM32.2 44.7C31.7 44.8 31.3 44.7 30.9 44.6C30.8 43.1 30.8 41.6 30.8 40C31.4 40 32 39.9 32.6 39.9C32.6 41.5 32.7 43 32.7 44.6C32.5 44.7 32.4 44.7 32.2 44.7ZM35.5 43.6C35.1 43.9 34.6 44.1 34.2 44.3C34.1 42.8 34.1 41.4 34.1 39.9H34.6C36.5 40.3 37 42.4 35.5 43.6Z" fill="#89664C"/>
<path d="M34 55H31.7V59L41 64L62 57.5V54L54.3 49.5L34 55Z" fill="#699635"/>
<path d="M32 52.7C32 52.7 34.4 56.6 41.2 60C41.2 60 51.8 59.5 62 52.7C62 52.7 56.1 49.8 54.4 46C54.4 46 50.4 51.6 32 52.7Z" fill="#83BF4F"/>
<path d="M27.5 54.9L29.7 54.8L30 58.5L21.3 64L0.399998 59.5L0.0999985 56.2L7.2 51.3L27.5 54.9Z" fill="#699635"/>
<path d="M29.2 52.6C29.2 52.6 27.1 56.5 20.8 60.2C20.8 60.2 10.5 60.5 0 55C0 55 5.6 51.8 6.9 48C6.9 48 11.3 53 29.2 52.6Z" fill="#83BF4F"/>
<path d="M24.2 53.7C24.2 53.7 23.9 54.5 25.3 54.6L21.6 57.7C21.6 57.7 19.4 57.5 18.9 59C18.9 59 9.9 58 4.1 55.4C4.1 55.4 5.3 54.5 3.8 53.9C3.8 53.9 5.5 52.7 5.9 51.6C5.9 51.6 7.5 51.8 8 50.6C8.2 50.5 14.2 54.1 24.2 53.7Z" stroke="#699635" stroke-miterlimit="10"/>
<path d="M8.8 55.1C9.84934 55.1 10.7 54.518 10.7 53.8C10.7 53.082 9.84934 52.5 8.8 52.5C7.75066 52.5 6.9 53.082 6.9 53.8C6.9 54.518 7.75066 55.1 8.8 55.1Z" fill="#699635"/>
<path d="M19 52.2C19 52.2 16.7 55.2 11.7 59.3L12 62L8.5 61.2L8.3 58.3C8.3 58.3 13.4 53.6 14.5 51.3C14.4 51.3 16.2 51.9 19 52.2ZM42.1 51.5C42.1 51.5 43 53.9 49.8 58.3V61.2L53.7 60V57C53.7 57 49 53.7 46.2 50.4L42.1 51.5Z" fill="#F9F3D9"/>
<path d="M36.4 48.3L34.2 48.2L34 52.3L42.9 58L63.8 52.3L63.9 48.7L56.6 43.6L36.4 48.3Z" fill="#699635"/>
<path d="M34.6 45.8C34.6 45.8 36.8 50 43.3 53.8C43.3 53.8 53.7 53.8 64 47.4C64 47.4 58.3 44.1 56.9 40C56.9 40 52.6 45.6 34.6 45.8Z" fill="#83BF4F"/>
<path d="M39.1 46.9C39.1 46.9 39.6 47.7 38 48L42.2 51.3C42.2 51.3 44.6 50.7 45.4 52.1C45.4 52.1 55.4 50.3 60 47.9C60 47.9 58.5 47.2 60 46.3C60 46.3 58.2 44.8 57.5 43.8C57.5 43.8 55.8 44.3 54.9 43.1C54.9 43.2 51.3 46.4 39.1 46.9Z" stroke="#699635" stroke-miterlimit="10"/>
<path d="M46.8 49.4C46.4 49.9 45.1 50.1 44 49.8C42.9 49.5 42.4 48.8 42.8 48.3C43.2 47.8 44.5 47.6 45.6 47.9C46.7 48.2 47.2 48.8 46.8 49.4Z" fill="#699635"/>
<path d="M44.8 45C44.8 45 47.2 48.2 52.3 52.5L52.2 55.5L55.7 54.5L55.8 51.3C55.8 51.3 50.6 46.3 49.3 43.9C49.4 43.9 47.7 44.6 44.8 45Z" fill="#F9F3D9"/>
<path d="M46 2C46 8.1 38.1 18 32 18C25.9 18 18 9.1 18 3C18 -3.1 18.9 3 25 3C25.9 3 30.1 0 32 0C33.3 0 37 3 39 3C44.3 3 46 -2.6 46 2Z" fill="#DBB471"/>
<path d="M30.2 13.3C29.6 13.7 26.7 13.4 25.8 14.1C24.6 15 26.3 17.1 25.1 18.4C22.7 20.8 20.8 23.5 21.4 25C22.4 27.6 24.3 20.2 26 23C27.7 25.8 27.4 21.1 30 23.5C32.6 25.9 30.4 19.2 32.9 22.1C35.4 25 35.5 28.3 37.3 28.3C39.4 28.3 35.1 20.4 37.9 22.3C40.7 24.2 43.8 23.5 41 20.6C40.1 19.7 38.9 18.1 37.5 16.7C37 16.2 37.4 13.6 36.9 13.2C36.3 12.7 34.8 14.3 34.2 14C33 13.4 33.4 14.5 31.6 14.8C30.4 15.2 31.4 12.5 30.2 13.3Z" fill="#89664C"/>
<path d="M18.7 19.2C22.6 15.5 29.7 17.6 33.9 19.4C38 21.2 40.5 15.5 37.9 12.6C36.4 10.9 34 12.9 33.1 14.1C32.1 15.3 31.3 16.6 30.2 17.8C28.6 19.6 24.7 18.1 25.9 15.6C27.2 13 32.7 16 34.5 16.5C38 17.5 41.7 17.9 45.2 16.6C46.4 16.2 45.9 14.2 44.7 14.7C40.8 16.1 36.9 15.2 33.2 14C31.3 13.4 28.3 11.8 26.3 12.7C20.6 15.4 25.9 23.1 30.7 20.1C31.8 19.4 32.5 18.3 33.3 17.3C33.8 16.7 36.3 12.9 36.9 14.8C37.2 15.8 36.9 17.6 35.8 17.9C35.1 18.2 33.7 17.2 33 17C31.7 16.5 30.4 16.1 29 15.8C25.3 15 20.3 15.2 17.4 17.9C16.4 18.7 17.8 20.1 18.7 19.2Z" fill="#E8E8E8"/>
<path d="M44.8 0.5C43.8 1.3 42 3 39 3C37 3 33.3 0 32 0C30.1 0 25.9 3 25 3C21.7 3 19.9 1.3 19 0.6C19 0.6 20.1 5.1 23.5 7.4C26 9 25.7 7.1 27 5.3C28.3 3.5 29.2 2.6 31.5 7.1C32.7 9.6 35 0.3 36.8 3.3C40.1 8.8 41.3 5.8 44.8 0.5Z" fill="#89664C"/>
<path d="M52.4 52.4L52.3 55.4L55.8 54.4L55.9 51.2C55.9 51.3 53.8 52.1 52.4 52.4ZM49.8 58.4V61.3L53.7 60.1V57.1C53.6 57 52.6 57.6 49.8 58.4ZM11.7 59.2L12 62L8.5 61.2L8.3 58.3C8.2 58.3 9.6 58.8 11.7 59.2Z" fill="#DBB471"/>
</g>
<defs>
<clipPath id="clip0_8_291">
<rect width="64" height="64" fill="white"/>
</clipPath>
</defs>
</svg>
