<svg width="20" height="19" viewBox="0 0 20 19" fill="none" xmlns="http://www.w3.org/2000/svg">
<path d="M4 4C4 1.79 5.79 0 8 1.23888e-10C10.21 1.58113e-10 12 1.79 12 4C12 6.21 10.21 8 8 8C5.79 8 4 6.21 4 4ZM10 14.2C10 13.24 10.5 12.34 11.2 11.74L11.2 10.5C11.2 10.45 11.22 10.39 11.22 10.34C10.23 10.12 9.15 10 8 10C3.58 10 -1.82581e-10 11.79 -2.16805e-10 14L-2.47777e-10 16L10 16L10 14.2ZM20 14.3L20 17.8C20 18.4 19.4 19 18.7 19L13.2 19C12.6 19 12 18.4 12 17.7L12 14.2C12 13.6 12.6 13 13.2 13L13.2 10.5C13.2 9.1 14.6 8 16 8C17.4 8 18.8 9.1 18.8 10.5L18.8 11L17.5 11L17.5 10.5C17.5 9.7 16.8 9.2 16 9.2C15.2 9.2 14.5 9.7 14.5 10.5L14.5 13L18.8 13C19.4 13 20 13.6 20 14.3Z" fill="black"/>
</svg>
