<svg width="101" height="67" viewBox="0 0 101 67" fill="none" xmlns="http://www.w3.org/2000/svg">
<path d="M61.7617 5.65001C61.8759 5.56156 62.0182 5.48832 62.1799 5.43476C62.3416 5.3812 62.5193 5.34844 62.7022 5.33846C62.8851 5.32849 63.0694 5.3415 63.2439 5.37673C63.4183 5.41195 63.5793 5.46864 63.7171 5.54335L68.7058 8.25001L53.0029 20.3333H63.4083L74.8158 11.56L83.7642 16.4167C84.0288 16.5606 84.1916 16.7624 84.2179 16.9791C84.2442 17.1957 84.1319 17.4102 83.905 17.5767L80.1675 20.3333H90.6975C92.0018 19.1583 92.5632 17.7303 92.2759 16.3183C91.9886 14.9063 90.8724 13.6076 89.1375 12.6667L69.0958 1.79001C68.129 1.26602 66.9987 0.868817 65.7741 0.622654C64.5494 0.376491 63.2561 0.286538 61.973 0.358289C60.69 0.430039 59.4442 0.661987 58.3117 1.03997C57.1792 1.41795 56.1838 1.93402 55.3863 2.55668L32.62 20.3333H42.9658L61.7617 5.65001ZM12.4375 18.6667C11.3601 18.6667 10.3267 18.9301 9.56488 19.3989C8.80301 19.8678 8.375 20.5036 8.375 21.1667C8.375 21.8297 8.80301 22.4656 9.56488 22.9344C10.3267 23.4033 11.3601 23.6667 12.4375 23.6667H82.8542C87.5231 23.6667 92.0008 24.808 95.3022 26.8397C98.6036 28.8713 100.458 31.6268 100.458 34.5V56.1667C100.458 59.0399 98.6036 61.7954 95.3022 63.827C92.0008 65.8587 87.5231 67 82.8542 67H17.8542C13.1853 67 8.70756 65.8587 5.40614 63.827C2.10472 61.7954 0.25 59.0399 0.25 56.1667V21.1667C0.25 19.1776 1.53404 17.2699 3.81964 15.8634C6.10524 14.4569 9.20517 13.6667 12.4375 13.6667H35.8375L29.3808 18.6667H12.4375ZM67.9583 46.1667C67.9583 47.5467 69.7783 48.6667 72.0208 48.6667H82.8542C83.9316 48.6667 84.9649 48.4033 85.7268 47.9344C86.4887 47.4656 86.9167 46.8297 86.9167 46.1667C86.9167 45.5036 86.4887 44.8678 85.7268 44.3989C84.9649 43.9301 83.9316 43.6667 82.8542 43.6667H72.0208C70.9434 43.6667 69.9101 43.9301 69.1482 44.3989C68.3864 44.8678 67.9583 45.5036 67.9583 46.1667Z" fill="#333333"/>
</svg>
